<svg xmlns="http://www.w3.org/2000/svg" width="204.639" height="193.903" version="1.0" viewBox="0 0 194 194"><path d="M77.025 65.275 136.208 0 0 3.046l50.915 61.36 26.11.87z" style="fill:#fbb900;fill-rule:evenodd;stroke:none;stroke-width:1;stroke-linecap:butt;stroke-linejoin:miter;stroke-dasharray:none" transform="translate(21.19 97.269) scale(1.16288)"/><path d="M0 17.281S8.736 0 21.101 11.7c13.014 11.702 54.023 52.737 54.023 52.737s1.308 1.248 2.617 1.248c0 0-7.193 1.305-11.708-2.554-4.576-3.92-41.667-41.633-41.667-41.633s-.769-.177-1.306.652c-.296.538 0 1.252 0 1.252s39.702 40.382 41.663 41.035c1.962.594 1.962 1.248 3.213 1.248 1.306.652-7.132 1.305-12.365-3.206-5.171-4.573-33.816-33.855-33.816-33.855s-.715-.355-1.367.299c-.657.652.057 1.663.057 1.663L53.671 63.13s3.209 1.9 3.862 1.9c0 0-7.133.654-12.361-3.861-4.519-4.573-26.689-26.664-26.689-26.664s-.77-.654-1.305 0c-.476.533.058 1.428.058 1.428l24.665 23.93s4.576 3.92 5.229 3.92c-.653 0-9.091 0-14.321-5.878C27.575 52.68 13.97 39.672 13.97 39.672s-.837-.714-1.31 0c-.476.715 0 1.306 0 1.306L31.498 59.21s1.311.653 2.617 1.306c0 0-13.612-.358-28.588-19.24 0 0 .473-7.363-1.367-13.306C2.736 23.34 0 17.28 0 17.28z" style="fill:#fbb900;fill-rule:evenodd;stroke:none;stroke-width:1;stroke-linecap:butt;stroke-linejoin:miter;stroke-dasharray:none" transform="translate(107.081 10.568) scale(1.16288)"/><path d="M6.656 21.44S0 24.763 4.576 29.931h10.462s.237-2.081 2.97-4.1c2.258-1.662-.357-4.988-.357-4.988s4.52 0 5.172 1.305c0 0-.652-1.958.654-3.267 1.307-1.305 1.963-3.916 1.963-3.916s.654 1.958 1.306 2.611l2.614 2.614s.058-2.671.657-3.267c.591-.592 1.958-1.958 1.958-3.92V9.8s5.827 3.858 5.827 6.473c0 0 .652-1.306 1.958-2.615 1.966-.652 3.271-1.248 3.271-1.248s-1.305 2.557 3.923 8.435c0 0 1.605-1.605 1.605-3.563 0-.653 2.434.239 3.566 1.6 1.31 1.545 1.31 4.577 1.31 4.577s1.482-2.019 2.611-2.614c1.132-.595 3.27 0 3.27 0s-1.305 3.267.653 5.82a184.382 184.382 0 0 1 3.209 3.268h11.118s2.556-1.962 1.244-3.863c-1.244-1.958-2.611-4.453-2.611-4.453s.058.414-.299 2.197c-.238 1.128-1.605 1.604-1.605 1.604s-.773-2.495-1.959-3.268c-2.856-1.9-1.964-4.572-1.964-4.572s-1.424.177-2.198 1.962c-.774 1.839-.417 2.61-.417 2.61s-2.2-1.958-2.552-3.92c-.477-2.257.767-3.5.767-3.5s-2.733-1.072-3.386-.415c-1.305.652-2.615 1.957-2.615 1.957s1.31-6.472-.655-7.778L54.74 7.185s.537 1.542-1.959 2.614c-2.08.89-2.555 4.391-4.521 5.167 0 .653-1.781-3.861-1.958-5.167-.415-2.435.475-2.972.475-5.583 0 0-3.093 1.482-4.875 1.663-1.07.119-2.795 2.614-2.795 2.614s1.43-3.148-.653-5.882C37.564 1.421 37.15 0 37.15 0s-1.313 2.611-2.557 3.917c-1.309 1.309-4.576 3.268-5.233 5.23-1.308 1.957-1.308 3.858-1.308 3.858s-1.306-2.554-1.958-3.206c-.654-.652-2.495-1.13-2.495-1.13s-.062 2.02-2.081 4.336c-2.204 2.491-.6 5.877-.6 5.877s-4.038.891-4.574-.652c-.297-.891.713-2.258.713-2.258s-2.019.3-3.325 1.605c-.656 1.305-1.312 3.267-1.964 4.572-1.306 1.962-2.616 3.92-3.268 3.92-1.248-.652-1.844-4.63-1.844-4.63z" style="fill:#fbb900;fill-rule:evenodd;stroke:none;stroke-width:1;stroke-linecap:butt;stroke-linejoin:miter;stroke-dasharray:none" transform="translate(51.303 55.183) scale(1.16288)"/><path d="M.653 11.05h13.671s.177-5.405-1.962-6.474c-4.1-2.08-3.09-4.453-3.09-4.453S7.43 0 7.133 1.962c-.533 2.969 0 5.82 0 5.82s0-.595-1.309-1.9C4.52 4.576 3.268 4.576 3.268 4.576s.653 1.306 0 2.612C2.615 8.435 1.31 8.435.653 9.74c-.653 1.309 0 1.309 0 1.309z" style="fill:#fbb900;fill-rule:evenodd;stroke:none;stroke-width:1;stroke-linecap:butt;stroke-linejoin:miter;stroke-dasharray:none" transform="translate(71.07 77.14) scale(1.16288)"/><path d="M2.615 16.274h28.589s-3.267-.652-3.267-3.267c-.654-1.9 0-3.861 0-3.861s-2.618.3-3.271 1.96c-1.011 2.497-2.615 2.554-2.615 2.554s.656-3.86-.656-5.168c-.653-1.306-1.958-2.61-1.958-2.61s.296 1.839-.653 2.61c-1.79 1.425-1.904 1.309-1.904 1.309s-2.617-1.309-3.923-3.92c-1.306-1.961-1.306-3.92-1.306-3.92s-1.965 0-2.618 1.959C8.38 5.882 7.728 7.186 7.728 7.186S5.11 0 3.21 0c0 0 .71 1.486 0 2.614C2.2 4.22 0 5.348 1.31 7.96c2.733 5.405 1.305 8.315 1.305 8.315z" style="fill:#fbb900;fill-rule:evenodd;stroke:none;stroke-width:1;stroke-linecap:butt;stroke-linejoin:miter;stroke-dasharray:none" transform="translate(86.276 71.065) scale(1.16288)"/><path d="M95.632 8.017h-3.865s.894-1.838-.476-2.078c-1.01-.175-2.2-.118-2.2-.118s.414 1.19 1.013 1.605c1.483 1.006 1.781-.357 1.781-.357l3.747.057s7.843-1.958 7.188 7.188c0 0-.653-1.305-2.611-1.305-1.31-.654-8.442-1.306-9.75 1.958-.654 4.514-.654 5.82 1.308 9.74 1.961 2.613 12.364 21.441 3.865 35.156 0 0-1.25-1.958-.598-4.568v-5.882s-6.534.652-7.19 2.61c0 0 .656-5.221-5.885-7.126 0 0 .652 3.863-3.21 5.822-3.27 1.96-4.576 5.882-4.576 5.882s-2.614-3.268-3.922-3.268c0 0-11.057 13.66-25.377 16.924l3.924-3.264 18.895-17.58c0-.653.422-1.01-.177-1.604-.353-.355-1.427-.12-1.427-.12S45.527 69.603 39.7 71.565c-5.882 1.958-8.5 1.958-8.5 1.958s3.27-1.305 5.233-3.266c.656-1.306 25.38-24.706 25.38-24.706s.413-.83 0-1.6c-.239-.417-1.306-.358-1.306-.358L34.47 69.603s-6.538 6.474-14.323 5.169c0 0 3.923-1.9 4.576-2.554 1.962-1.306 32.512-31.89 32.512-31.89s.476-.893-.061-1.604c-.355-.476-1.248-.357-1.248-.357L22.762 71.565s-5.881 5.168-13.016 3.859c0 0 1.962-.653 3.925-1.9 1.244-1.306 40.355-39.73 40.355-39.73s.891-.83 0-1.842c-.415-.473-1.308-.059-1.308-.059S28.588 55.296 13.67 71.566C7.784 76.733 0 75.424 0 75.424c1.247-.653 2.555-.653 3.863-1.9 1.308-1.306 52.064-52.737 52.064-52.737s7.191-5.82 14.324-1.959c5.884 2.611 9.151 8.492 9.151 13.661h1.313s0-6.472-5.237-11.702c0 0-1.305-2.553 4.58-12.355 0 0-3.923-3.855 1.31-8.432 0 0-1.31 3.268 3.208 3.268 4.576 0 9.805-.653 11.056 3.858v.89z" style="fill:#fbb900;fill-rule:evenodd;stroke:none;stroke-width:1;stroke-linecap:butt;stroke-linejoin:miter;stroke-dasharray:none" transform="translate(-3.09) scale(1.16288)"/><path d="M15.822.004c.262 3.311 3.476 6.089 8.336 6.089 5.026 0 8.595-1.992 8.813-6.089h15.177L23.886 24.067 0 .004h15.822zm11.186 0c.037.111.06.231.06.353 0 .891-1.023 1.388-2.569 1.388-.599 0-1.255-.157-1.755-.469A2.132 2.132 0 0 1 21.78 0l5.229.004z" style="fill:#0058a1;fill-rule:evenodd;stroke:none;stroke-width:1;stroke-linecap:butt;stroke-linejoin:miter;stroke-dasharray:none" transform="translate(68.245 165.664) scale(1.16288)"/><path d="M63.305 63.773 0 0h175.748l-64.296 63.773H96.275c.007-.136.014-.27.014-.404 0-6.861-10.838-5.107-10.838-7.936 0-.68.598-1.07 1.961-1.07.602 0 1.153.1 1.599.339.445.235.785.626.886 1.282h5.868c-.445-3.301-2.828-5.97-8.064-5.97-4.713 0-8.169 2.017-8.169 6.022 0 6.883 9.906 5.39 10.78 7.74l-5.228-.003c-.02-.075-.042-.146-.056-.221h-5.915c0 .075.007.15.014.224l-15.822-.003zm69.11-45.731c-.497-4.843-3.72-7.696-9.48-7.696-5.262 0-9.396 3.798-9.396 9.897 0 6.126 3.766 9.947 10.002 9.947 4.97 0 8.455-2.931 9.003-7.8h-5.943c-.234 1.807-1.177 3.193-3.169 3.193-3.141 0-3.716-2.485-3.716-5.13 0-3.641 1.309-5.5 3.485-5.5 1.934 0 3.166 1.128 3.348 3.089h5.866zM54.2 23.646h-3.903l1.911-6.756 1.992 6.756zm-5.786 6.415.707-2.488h6.153l.732 2.488h6.152l-6.755-18.855h-6.282L42.362 30.06h6.052zM88.496 8.494l1.966 3.205 1.305-.653h7.785V7.188h-9.09s-.656-.123-1.366.473c-.715.594-.6.833-.6.833zm2.428 31.174c1.224 0 2.407-.01 3.51-.01a3.578 3.578 0 0 1 3.004-1.634c1.271 0 2.383.649 3.016 1.644h.407c1.962 0-.033-2.188-.033-2.188l-4.519-6.705s-.38.038-.578.038c-2.356 0-4.269-1.907-4.269-4.254 0-.762.533-2.087.533-2.087-3.382-5.236-8.666-13.103-8.666-13.426h-7.194V7.188s7.194-.062 8.438 0c1.014.056 1.314.652 1.314.652l9.416 14.487s.286-.021.428-.021a4.26 4.26 0 0 1 4.271 4.253c0 .786-.585 2.152-.585 2.152l.027-.057c.01-.021 5.433 8.285 6.092 9.58 3.267 3.917-1.033 5.582-2.713 5.358 0 0-.925-.011-2.428-.013a3.575 3.575 0 0 1-2.957 1.556 3.574 3.574 0 0 1-2.95-1.554c-1.144-.002-2.337-.002-3.585-.002a3.572 3.572 0 0 1-2.954 1.556c-1.227 0-2.314-.645-2.96-1.585-1.28 0-2.523-.012-3.74-.012a3.577 3.577 0 0 1-2.954 1.557 3.493 3.493 0 0 1-2.918-1.537c-1.662.007-2.995.02-3.817.034-2.21.04-5.655-2.381-2.558-5.882l6.392-9.464s-.445-1.18-.445-1.88c0-2.35 1.913-4.253 4.27-4.253.133 0 .398.019.398.019l4.304-6.512 2.617 3.265-3.606 5.383s.554 1.332.554 2.098a4.261 4.261 0 0 1-4.267 4.253c-.207 0-.48-.062-.48-.062-2.067 2.996-4.446 6.487-5.215 7.486-1.304 1.962.653 1.625.653 1.625s.424-.05 1.115-.05a3.566 3.566 0 0 1 3.003-1.636c1.274 0 2.342.69 2.974 1.686 1.162 0 2.4-.01 3.674-.01a3.573 3.573 0 0 1 3.006-1.634c1.272 0 2.343.649 2.975 1.644z" style="fill:#0058a1;fill-rule:evenodd;stroke:none;stroke-width:1;stroke-linecap:butt;stroke-linejoin:miter;stroke-dasharray:none" transform="translate(-5.371 91.509) scale(1.16288)"/></svg>