<svg width="48" height="48" viewBox="0 0 48 48" fill="none" xmlns="http://www.w3.org/2000/svg">
<rect width="48" height="48" rx="12" fill="#FFD23F"/>
<path fillRule="evenodd" clip-rule="evenodd" d="M25.0008 15C21.2512 15 18.2015 17.94 18.0216 21.64L16.1018 24.2C15.8518 24.53 16.0918 25 16.5017 25H18.0016V28C18.0016 29.1 18.9015 30 20.0013 30H21.0012V33H28.0004V28.32C30.3602 27.2 32 24.79 32 22C32 18.13 28.8703 15 25.0008 15ZM28.0004 22C28.0004 22.13 27.9904 22.26 27.9804 22.39L28.8104 23.05C28.8903 23.11 28.9103 23.21 28.8603 23.3L28.0604 24.69C28.0104 24.78 27.9005 24.81 27.8205 24.78L26.8306 24.38C26.6206 24.54 26.4006 24.67 26.1606 24.77L26.0007 25.83C25.9907 25.93 25.9007 26 25.8007 26H24.2009C24.1009 26 24.0209 25.93 24.0009 25.83L23.8509 24.77C23.6009 24.67 23.381 24.54 23.171 24.38L22.1811 24.78C22.0911 24.81 21.9811 24.78 21.9311 24.69L21.1312 23.3C21.0812 23.22 21.1012 23.11 21.1812 23.05L22.0211 22.39C22.0111 22.26 22.0011 22.13 22.0011 22C22.0011 21.87 22.0211 21.73 22.0411 21.61L21.1912 20.95C21.1112 20.89 21.0912 20.79 21.1412 20.69L21.9411 19.31C21.9911 19.22 22.0911 19.19 22.1811 19.22L23.181 19.62C23.381 19.47 23.6109 19.33 23.8509 19.23L24.0009 18.17C24.0209 18.07 24.1009 18 24.2009 18H25.8007C25.9007 18 25.9807 18.07 26.0007 18.17L26.1507 19.23C26.3906 19.33 26.6106 19.46 26.8206 19.62L27.8205 19.22C27.9105 19.19 28.0204 19.22 28.0604 19.31L28.8603 20.69C28.9103 20.78 28.8903 20.89 28.8104 20.95L27.9604 21.61C27.9904 21.73 28.0004 21.86 28.0004 22ZM23.5709 22C23.5709 21.21 24.2109 20.57 25.0008 20.57C25.7907 20.57 26.4306 21.21 26.4306 22C26.4306 22.79 25.7907 23.43 25.0008 23.43C24.2109 23.43 23.5709 22.79 23.5709 22Z" fill="#1E1E24"/>
</svg>
