<svg xmlns="http://www.w3.org/2000/svg" xml:space="preserve" width="205" height="33" style="display:inline">
  <g style="display:inline">
    <path d="M.26 16.567v192.756V16.567z" style="fill:#ffffff;fill-opacity:1;fill-rule:nonzero;stroke:none" transform="matrix(1.25 0 0 -1.25 -14.963 150.464)"/>
    <path d="M15.091 95.787v4.762h2.876c.718 0 1.527 0 2.066-.449.629-.449.988-1.258.988-1.977 0-.719-.269-1.348-.808-1.797-.539-.449-1.348-.539-2.067-.539h-3.055zm0 5.93v4.223h2.876c.629 0 1.167 0 1.707-.27.629-.359.988-.988.988-1.707 0-.629-.359-1.347-.809-1.707-.629-.539-1.527-.539-2.336-.539h-2.426zm3.145-7.188c1.168 0 2.156.09 3.055.809.898.718 1.258 1.617 1.258 2.695 0 1.618-1.078 2.876-2.606 3.235 1.348.359 2.246 1.437 2.246 2.785a2.988 2.988 0 0 1-1.347 2.516c-.899.539-1.618.629-2.606.629h-4.672V94.529h4.672M25.514 99.291c0 .809.09 1.707.449 2.336.449.809 1.258 1.348 2.157 1.348.808 0 1.617-.449 2.066-1.078.449-.809.539-1.707.539-2.606 0-.808-.09-1.617-.449-2.426-.449-.809-1.168-1.348-2.156-1.348-.899 0-1.708.45-2.067 1.168-.449.809-.539 1.798-.539 2.606zm-1.617 0c0-2.426 1.258-4.942 4.043-4.942 2.875 0 4.402 2.336 4.402 4.942 0 2.426-1.347 4.852-4.132 4.852-2.786 0-4.313-2.246-4.313-4.852M35.308 99.291c0 .809.09 1.707.449 2.336.359.809 1.258 1.348 2.156 1.348.809 0 1.528-.449 1.977-1.078.539-.809.629-1.707.629-2.606 0-.808-.09-1.617-.449-2.426-.45-.809-1.258-1.348-2.157-1.348-.898 0-1.707.45-2.066 1.168-.449.809-.539 1.798-.539 2.606zm-1.618 0c0-2.426 1.258-4.942 4.044-4.942 2.875 0 4.313 2.336 4.313 4.942 0 2.426-1.348 4.852-4.044 4.852-2.785 0-4.313-2.246-4.313-4.852M49.863 103.065l-5.121-7.368h5.121v-1.168h-6.918v1.168l5.032 7.098h-4.583v1.079h6.469v-.809" style="fill:#ffffff;fill-opacity:1;fill-rule:evenodd;stroke:none" transform="matrix(1.05035 0 0 -1.05035 -2.255 122.417)"/>
    <path d="M58.04 90.396h1.168v19.498H58.04V90.396z" style="fill:#ffffff;fill-opacity:1;fill-rule:nonzero;stroke:none" transform="matrix(1.05035 0 0 -1.05035 -2.255 122.417)"/>
    <path d="M73.225 99.471h-3.864l1.887 6.02 1.977-6.02zm-.989 7.727h-1.707l-4.133-12.669h1.348l1.168 3.684h4.672l1.258-3.684h1.527l-4.133 12.669M87.062 100.19c0 1.437 1.078 2.875 2.695 2.875 1.618 0 2.606-1.348 2.516-2.875h-5.211zm5.301-2.876c-.449-1.078-1.348-1.797-2.516-1.797-.988 0-2.067.629-2.516 1.528-.359.629-.359 1.348-.359 2.066H93.8c.09 2.606-1.167 5.032-4.043 5.032-2.785 0-4.313-2.336-4.313-4.942 0-2.605 1.438-4.852 4.223-4.852 1.797 0 3.415 1.078 4.044 2.786l-1.348.179M97.215 102.346h.09c.449.988 1.617 1.797 2.875 1.797 1.168 0 2.067-.449 2.696-1.438.449-.808.359-2.066.359-2.965v-5.211h-1.438v5.84c0 .54.09 1.169-.179 1.707-.36.54-.989.809-1.618.809-.808 0-1.437-.359-1.977-.898-.539-.719-.718-1.618-.718-2.516v-4.942h-1.438v9.345h1.348v-1.528M183.292 102.346c.449.988 1.617 1.797 2.875 1.797 1.168 0 2.066-.449 2.696-1.438.449-.808.449-2.066.449-2.965v-5.211h-1.438v5.84c0 .54 0 1.169-.269 1.707-.36.54-.989.809-1.618.809-.719 0-1.437-.359-1.886-.898-.629-.719-.809-1.618-.809-2.516v-4.942h-1.438v9.345h1.438v-1.528" style="fill:#ffffff;fill-opacity:1;fill-rule:evenodd;stroke:none" transform="matrix(1.05035 0 0 -1.05035 -2.255 122.417)"/>
    <path d="M111.501 90.396h1.168v19.498h-1.168V90.396z" style="fill:#ffffff;fill-opacity:1;fill-rule:nonzero;stroke:none" transform="matrix(1.05035 0 0 -1.05035 -2.255 122.417)"/>
    <path d="M128.932 94.529v6.11h-5.84v-6.11h-1.438v12.669h1.438v-5.391h5.84v5.391h1.527V94.529h-1.527M138.816 98.662c0-1.617-1.168-3.145-2.875-3.145-1.169 0-2.067.45-2.067 1.618 0 1.886 2.067 2.156 3.774 2.156h1.168v-.629zm-1.168 1.707c-1.168 0-2.516-.089-3.505-.539-.988-.449-1.707-1.527-1.707-2.605 0-1.887 1.438-2.876 3.235-2.876 1.437 0 2.516.629 3.145 1.977l.179-1.797h1.438a7.473 7.473 0 0 0-.269 1.977v3.684c0 .988 0 2.246-.719 3.055-.719.808-1.797.898-2.786.898-1.707 0-3.683-.629-3.953-2.605l1.258-.18c.269 1.258 1.437 1.617 2.516 1.617 1.617 0 2.336-.539 2.336-2.246v-.36h-1.168M144.027 103.874v-1.618c.449.989 1.528 1.887 2.786 1.887 1.347 0 2.425-.988 2.605-2.067.539 1.169 1.617 2.067 3.055 2.067.988 0 1.887-.539 2.336-1.348.449-.808.449-1.797.449-2.695v-5.571h-1.437v5.571c0 .629 0 1.348-.27 1.887-.269.629-.898.988-1.527.988-.719 0-1.438-.449-1.797-1.078-.539-.719-.539-1.438-.539-2.336v-5.032h-1.438v5.93c0 .539 0 1.168-.27 1.617-.359.54-.988.899-1.617.899s-1.258-.449-1.707-.899c-.449-.628-.539-1.437-.539-2.156v-5.391h-1.438v9.345h1.348M157.864 103.874h1.438V94.53h-1.438v9.344zm-.09 3.324h1.617v-1.617h-1.617v1.617z" style="fill:#ffffff;fill-opacity:1;fill-rule:evenodd;stroke:none" transform="matrix(1.05035 0 0 -1.05035 -2.255 122.417)"/>
    <path d="M162.267 94.529h1.348v12.669h-1.348V94.529zM77.807 94.529h1.348v12.669h-1.348V94.529zM82.12 94.529h1.348v12.669H82.12V94.529z" style="fill:#ffffff;fill-opacity:1;fill-rule:nonzero;stroke:none" transform="matrix(1.05035 0 0 -1.05035 -2.255 122.417)"/>
    <path d="m170.892 94.529-1.347-.18c-2.067 0-2.696 1.258-2.696 3.055v5.391h-1.617v1.168h1.617v2.336l1.438.09v-2.426h2.066v-1.168h-2.066v-5.57c0-1.079.359-1.708 1.527-1.708l1.078.09v-1.078M173.229 99.291c0 .809.089 1.707.449 2.336a2.269 2.269 0 0 0 2.066 1.348c.899 0 1.618-.449 2.067-1.078.539-.809.629-1.707.629-2.606 0-.808-.09-1.617-.449-2.426-.45-.809-1.258-1.348-2.247-1.348-.808 0-1.617.45-1.976 1.168-.45.809-.539 1.798-.539 2.606zm-1.618 0c0-2.426 1.258-4.942 4.043-4.942 2.876 0 4.313 2.336 4.313 4.942 0 2.426-1.347 4.852-4.043 4.852-2.875 0-4.313-2.246-4.313-4.852" style="fill:#ffffff;fill-opacity:1;fill-rule:evenodd;stroke:none" transform="matrix(1.05035 0 0 -1.05035 -2.255 122.417)"/>
  </g>
</svg>
