<svg width="48" height="48" viewBox="0 0 48 48" fill="none" xmlns="http://www.w3.org/2000/svg">
<rect width="48" height="48" rx="12" fill="#E66390"/>
<path fillRule="evenodd" clip-rule="evenodd" d="M24 16V13L20 17L24 21V18C27.31 18 30 20.69 30 24C30 25.01 29.75 25.97 29.3 26.8L30.76 28.26C31.54 27.03 32 25.57 32 24C32 19.58 28.42 16 24 16ZM24 30C20.69 30 18 27.31 18 24C18 22.99 18.25 22.03 18.7 21.2L17.24 19.74C16.46 20.97 16 22.43 16 24C16 28.42 19.58 32 24 32V35L28 31L24 27V30Z" fill="#1E1E24"/>
</svg>
