<svg xmlns="http://www.w3.org/2000/svg" width="176" height="60" fill="none"><path fill="#DA1A42" d="m56.684 18.57-.924.302a.692.692 0 0 1-.88-.43l-.302-.925a.692.692 0 0 1 .43-.88l.926-.301a.692.692 0 0 1 .879.43l.302.925a.692.692 0 0 1-.43.879Zm1.827 3.781-.197-.742a.421.421 0 0 0-.513-.302l-.741.197a.421.421 0 0 0-.302.513l.197.742c.059.224.288.361.512.302l.742-.193a.421.421 0 0 0 .302-.512v-.005Zm-3.41-2.23a.556.556 0 0 0-.696-.366l-.834.248a.556.556 0 0 0-.366.695l.247.834a.556.556 0 0 0 .696.366l.833-.252a.556.556 0 0 0 .367-.696l-.248-.833v.005Zm-2.917-.617-.302-.925a.692.692 0 0 0-.879-.43l-.925.302a.692.692 0 0 0-.43.879l.302.924a.692.692 0 0 0 .88.43l.924-.302a.692.692 0 0 0 .43-.879Zm-4.646-3.123-1.017.357a.825.825 0 0 0-.494 1.063l.357 1.016a.83.83 0 0 0 1.062.499l1.016-.362a.825.825 0 0 0 .495-1.062l-.357-1.016a.828.828 0 0 0-1.062-.495Zm5.846 7.041a.421.421 0 0 0-.513-.302l-.742.197a.421.421 0 0 0-.302.513l.193.741c.059.225.288.357.512.302l.742-.196a.421.421 0 0 0 .302-.513l-.197-.742h.005Zm-3.219-1.483a.556.556 0 0 0-.696-.366l-.833.247a.556.556 0 0 0-.366.696l.247.833a.556.556 0 0 0 .696.366l.833-.247a.556.556 0 0 0 .367-.696l-.252-.833h.004Zm-2.911-.618-.302-.925a.692.692 0 0 0-.88-.43l-.924.302a.692.692 0 0 0-.43.879l.302.925a.692.692 0 0 0 .879.43l.925-.302a.692.692 0 0 0 .43-.879Zm-4.647-3.122-1.016.357a.825.825 0 0 0-.495 1.062l.358 1.016a.825.825 0 0 0 1.062.495l1.016-.357a.825.825 0 0 0 .494-1.063l-.357-1.016a.828.828 0 0 0-1.062-.494Zm5.846 7.04a.421.421 0 0 0-.513-.301l-.741.196a.421.421 0 0 0-.302.513l.192.742c.06.224.288.361.513.302l.741-.197a.421.421 0 0 0 .302-.513l-.196-.741h.004Zm-3.218-1.483a.556.556 0 0 0-.696-.366l-.833.252a.556.556 0 0 0-.366.696l.247.833a.556.556 0 0 0 .696.366l.833-.247a.556.556 0 0 0 .366-.696l-.252-.833.005-.005Zm-2.912-.618-.302-.924a.692.692 0 0 0-.879-.43l-.925.302a.692.692 0 0 0-.43.879l.302.924a.692.692 0 0 0 .88.43l.924-.302a.692.692 0 0 0 .43-.879Zm-3.227-1.611-.357-1.016a.825.825 0 0 0-1.062-.495l-1.017.357a.824.824 0 0 0-.494 1.062l.357 1.017a.825.825 0 0 0 1.062.494l1.016-.357a.824.824 0 0 0 .495-1.062Zm4.427 5.526a.425.425 0 0 0-.513-.303l-.742.197a.421.421 0 0 0-.302.513l.192.742c.06.224.289.361.513.302l.742-.197a.421.421 0 0 0 .302-.513l-.197-.741h.005Zm-3.219-1.484a.556.556 0 0 0-.695-.366l-.834.252a.556.556 0 0 0-.366.696l.247.833a.556.556 0 0 0 .696.366l.833-.247a.556.556 0 0 0 .367-.696l-.252-.833.004-.005Zm12.16-10.987-1.017.362a.825.825 0 0 0-.494 1.062l.357 1.016c.155.43.632.65 1.062.495l1.016-.357a.825.825 0 0 0 .495-1.063l-.357-1.016a.828.828 0 0 0-1.063-.494v-.005Zm-16.655 4.94c.133.348.06.723-.156.993-.155.192-.458.17-.604-.027-.087-.12-.403-.49-.403-.49-2.61-2.733-6.478-4.28-11.976-4.28-9.06 0-16.087 5.864-22.176 13.756l-.032.042a.191.191 0 0 1-.146.073h-.17A.149.149 0 0 1 0 29.438l.01-.357C.521 12.664 14.14-.32 30.594.006c8.908.174 16.833 4.212 22.207 10.483a20.052 20.052 0 0 1 1.543 2.029c.083.123.188.292.284.462l.123.238a.348.348 0 0 1-.183.485l-.792.293a1.019 1.019 0 0 1-1.309-.586s-.183-.526-.33-.966a.543.543 0 0 0-.718-.334c-.275.115-.6.243-.87.348a.542.542 0 0 0-.311.71c.164.407.357.906.357.906a1.02 1.02 0 0 1-.586 1.31l-1.163.434a1.02 1.02 0 0 1-1.31-.586s-.182-.522-.329-.966a.542.542 0 0 0-.719-.334c-.274.115-.6.243-.87.348a.54.54 0 0 0-.31.71c.164.407.356.906.356.906a1.012 1.012 0 0 1-.586 1.305l-1.163.435a1.02 1.02 0 0 1-1.309-.586s-.183-.522-.33-.966a.542.542 0 0 0-.723-.334c-.27.114-.595.242-.865.343a.542.542 0 0 0-.311.71c.164.407.357.906.357.906a1.012 1.012 0 0 1-.586 1.305l-1.163.435a1.02 1.02 0 0 1-1.31-.586s-.182-.527-.329-.966a.538.538 0 0 0-.723-.33c-.27.114-.595.243-.866.343a.54.54 0 0 0-.31.71c.164.407.356.906.356.906l.005-.004Zm11.097-7.966c.11.284.238.637.32.898a.482.482 0 0 0 .637.297c.251-.1.558-.22.81-.311a.477.477 0 0 0 .275-.637 14.724 14.724 0 0 1-.348-.879.513.513 0 0 0-.669-.302c-.224.087-.485.183-.714.266a.52.52 0 0 0-.307.673l-.004-.005Zm-4.93 1.813c.11.284.237.636.32.897a.478.478 0 0 0 .636.298c.252-.1.559-.22.81-.311a.477.477 0 0 0 .275-.637 14.721 14.721 0 0 1-.348-.879.513.513 0 0 0-.668-.302c-.224.087-.485.183-.714.266a.518.518 0 0 0-.307.673l-.005-.005Zm-4.931 1.813c.11.284.238.636.32.897a.478.478 0 0 0 .637.298c.252-.1.558-.22.81-.311a.477.477 0 0 0 .275-.637 14.693 14.693 0 0 1-.348-.879.513.513 0 0 0-.669-.302c-.224.087-.485.183-.714.266a.516.516 0 0 0-.306.673l-.005-.005ZM2.724 41.395l.925-.302a.692.692 0 0 1 .879.43l.302.925a.692.692 0 0 1-.43.88l-.925.301a.692.692 0 0 1-.88-.43l-.301-.925a.692.692 0 0 1 .43-.879ZM.897 37.614l.197.742c.06.224.289.361.513.302l.742-.197a.421.421 0 0 0 .302-.513l-.197-.742a.421.421 0 0 0-.513-.302l-.742.193a.421.421 0 0 0-.302.512v.005Zm3.41 2.23a.556.556 0 0 0 .697.366l.833-.248a.556.556 0 0 0 .366-.695l-.247-.834a.556.556 0 0 0-.696-.366l-.833.252a.556.556 0 0 0-.366.696l.247.833v-.005Zm2.917.617.302.925a.692.692 0 0 0 .88.43l.924-.302a.692.692 0 0 0 .43-.879l-.302-.924a.692.692 0 0 0-.879-.43l-.925.302a.692.692 0 0 0-.43.879Zm4.647 3.123 1.016-.357a.825.825 0 0 0 .494-1.063l-.357-1.016a.83.83 0 0 0-1.062-.499l-1.016.362a.825.825 0 0 0-.495 1.062l.358 1.016c.155.43.631.65 1.062.495Zm-5.846-7.041c.06.224.288.361.512.302l.742-.197a.421.421 0 0 0 .302-.513l-.192-.741a.425.425 0 0 0-.513-.302l-.742.196a.421.421 0 0 0-.302.513l.197.742h-.004Zm3.218 1.483a.556.556 0 0 0 .696.366l.833-.247a.556.556 0 0 0 .366-.696l-.247-.833a.556.556 0 0 0-.696-.366l-.833.247a.556.556 0 0 0-.366.696l.252.833h-.005Zm2.912.618.302.925a.692.692 0 0 0 .879.43l.924-.302a.692.692 0 0 0 .43-.879l-.301-.925a.692.692 0 0 0-.88-.43l-.924.302a.692.692 0 0 0-.43.879Zm4.646 3.122 1.017-.357a.825.825 0 0 0 .494-1.062l-.357-1.016a.825.825 0 0 0-1.062-.495l-1.017.357a.824.824 0 0 0-.494 1.063l.357 1.016c.156.43.632.65 1.062.494Zm-5.846-7.04c.06.224.288.36.513.301l.741-.196a.421.421 0 0 0 .303-.513l-.193-.742a.421.421 0 0 0-.512-.302l-.742.197a.421.421 0 0 0-.302.513l.197.741h-.005Zm3.218 1.483a.556.556 0 0 0 .696.366l.833-.252a.556.556 0 0 0 .367-.696l-.247-.833a.556.556 0 0 0-.696-.366l-.834.247a.556.556 0 0 0-.366.696l.252.833-.005.005Zm2.912.618.302.924a.692.692 0 0 0 .88.43l.924-.301a.692.692 0 0 0 .43-.88l-.302-.924a.692.692 0 0 0-.879-.43l-.925.302a.692.692 0 0 0-.43.879Zm3.227 1.611.357 1.016a.825.825 0 0 0 1.063.495l1.016-.357a.824.824 0 0 0 .494-1.062l-.357-1.017a.825.825 0 0 0-1.062-.494l-1.016.357a.825.825 0 0 0-.495 1.062Zm-4.427-5.526c.06.225.289.358.513.303l.742-.197a.421.421 0 0 0 .302-.513l-.192-.742a.421.421 0 0 0-.513-.302l-.742.197a.421.421 0 0 0-.302.513l.197.741h-.005Zm3.219 1.484a.556.556 0 0 0 .696.366l.833-.252a.556.556 0 0 0 .366-.696l-.247-.833a.556.556 0 0 0-.696-.366l-.833.247a.556.556 0 0 0-.366.696l.251.833-.004.005ZM6.944 45.383l1.017-.362a.825.825 0 0 0 .495-1.062l-.358-1.016a.828.828 0 0 0-1.062-.495l-1.016.357a.825.825 0 0 0-.494 1.063l.357 1.016c.155.43.631.65 1.062.494v.005Zm16.655-4.94a1.014 1.014 0 0 1 .156-.993c.156-.193.458-.17.604.027.087.12.403.49.403.49 2.61 2.733 6.478 4.28 11.976 4.28 9.06 0 16.087-5.864 22.176-13.756l.032-.041a.191.191 0 0 1 .146-.074h.17c.082 0 .146.069.146.151l-.009.357c-.513 16.403-14.137 29.386-30.59 29.061-8.909-.174-16.833-4.211-22.208-10.483a20.055 20.055 0 0 1-1.542-2.028 7.98 7.98 0 0 1-.284-.463l-.124-.238a.348.348 0 0 1 .183-.485l.792-.293a1.02 1.02 0 0 1 1.31.586s.183.527.33.966c.095.297.43.453.718.334.275-.114.6-.242.87-.348a.542.542 0 0 0 .311-.71c-.165-.407-.357-.906-.357-.906a1.02 1.02 0 0 1 .586-1.31l1.163-.434a1.02 1.02 0 0 1 1.31.586s.182.522.329.966c.096.297.43.453.718.334.275-.114.6-.242.87-.348a.54.54 0 0 0 .312-.71c-.165-.407-.357-.906-.357-.906a1.012 1.012 0 0 1 .585-1.304l1.163-.435a1.02 1.02 0 0 1 1.31.585s.183.522.33.966c.095.303.43.454.723.335.27-.115.595-.243.865-.344a.542.542 0 0 0 .311-.71c-.165-.407-.357-.906-.357-.906a1.012 1.012 0 0 1 .586-1.304l1.163-.435a1.02 1.02 0 0 1 1.309.586s.183.526.33.966a.538.538 0 0 0 .723.33c.27-.115.595-.243.865-.344a.54.54 0 0 0 .311-.71c-.164-.407-.357-.906-.357-.906v.018ZM12.502 48.41c-.11-.284-.238-.636-.32-.898a.482.482 0 0 0-.636-.297c-.252.1-.559.22-.81.311a.477.477 0 0 0-.275.637c.105.238.242.586.348.879.1.27.398.407.668.302.224-.087.485-.183.714-.266a.52.52 0 0 0 .307-.673l.004.005Zm4.93-1.813c-.109-.284-.237-.636-.32-.897a.478.478 0 0 0-.636-.298c-.252.1-.558.22-.81.311a.477.477 0 0 0-.275.637c.105.238.243.586.348.879.1.27.398.407.668.302.225-.087.486-.183.715-.266a.518.518 0 0 0 .306-.673l.005.005Zm4.931-1.813c-.11-.284-.238-.636-.32-.897a.478.478 0 0 0-.636-.298c-.252.1-.559.22-.81.312a.477.477 0 0 0-.275.636c.105.238.242.586.348.879.1.27.398.407.668.302.224-.087.485-.183.714-.265a.517.517 0 0 0 .307-.673l.004.004Z"/><path fill="#fefefe" d="M71.787 27.103V5.316h8.277c7.055 0 11.189 5.013 11.189 10.896 0 5.883-4.107 10.896-11.189 10.896h-8.277v-.005Zm5.077-4.235h2.728c4.327 0 6.428-3.204 6.428-6.66 0-3.457-2.101-6.662-6.427-6.662h-2.729v13.322ZM93.038 7.898c0-1.62 1.222-2.925 2.948-2.925s2.976 1.31 2.976 2.925c0 1.616-1.254 2.894-2.976 2.894-1.721 0-2.948-1.31-2.948-2.894Zm.563 19.205V12.1h4.766v15.002H93.6ZM112.627 12.1h4.793v14.042c-.032 2.893-1.066 5.04-2.916 6.317-1.378.966-3.227 1.337-5.393 1.337-2.165 0-3.983-.343-5.452-1.213-1.534-.934-2.632-2.555-2.697-4.17h4.89c.219 1.18 1.254 1.9 3.195 1.9 2.225 0 3.576-.967 3.576-3.645v-1.991c-.751 1.492-2.761 2.426-4.734 2.426-4.482 0-7.178-3.237-7.178-7.659s2.884-7.75 7.242-7.75c2.069 0 3.919.997 4.67 2.554v-2.147h.004Zm.22 7.408c0-2.179-1.346-3.923-3.635-3.923-2.161 0-3.575 1.648-3.575 3.923 0 2.275 1.41 3.923 3.575 3.923 2.289 0 3.635-1.744 3.635-3.923ZM119.801 7.898c0-1.62 1.222-2.925 2.948-2.925s2.976 1.31 2.976 2.925c0 1.616-1.255 2.894-2.976 2.894s-2.948-1.31-2.948-2.894Zm.563 19.205V12.1h4.766v15.002h-4.766ZM138.264 23.308v3.795c-.692.124-1.818.247-3.196.247-2.257 0-5.361-.499-5.361-5.512v-5.974h-2.38v-3.768h2.38v-4.45h4.794v4.45h3.415v3.768h-3.415v4.98c0 2.212.911 2.555 2.101 2.555.531 0 1.222-.032 1.662-.091ZM139.674 19.604c0-4.482 2.788-7.906 7.178-7.906 2.193 0 3.919 1.025 4.734 2.555v-2.148h4.765v14.998h-4.765v-2.115c-.815 1.492-2.697 2.522-4.798 2.522-4.514 0-7.114-3.392-7.114-7.906Zm12.099 0c0-2.147-1.222-3.923-3.602-3.923-2.225 0-3.603 1.648-3.603 3.923 0 2.276 1.378 3.956 3.603 3.956 2.38 0 3.602-1.777 3.602-3.956ZM159.29 27.103V5.316h4.798v21.787h-4.798ZM77.62 54.8V37.495H71.6v-4.482h17.112v4.482h-6.048V54.8H77.62Z"/><path fill="#fefefe" d="M85.796 49.073v-9.275h4.857v8.217c0 2.056.691 3.177 2.509 3.177 2.037 0 2.916-1.31 2.916-3.333v-8.061h4.765V54.8h-4.765v-2.147c-.847 1.588-2.413 2.554-4.702 2.554-3.635 0-5.58-2.243-5.58-6.13v-.004ZM103.755 54.8V39.798h4.798v3.145c.531-2.243 2.321-3.393 4.17-3.393.563 0 .879.033 1.255.124v4.422a10.554 10.554 0 0 0-1.442-.091c-2.601 0-3.983 1.68-3.983 5.013v5.79h-4.798V54.8ZM132.592 47.3c0 4.703-2.917 7.907-7.082 7.907-2.225 0-4.043-1.121-4.826-2.522V54.8h-4.765V33.009h4.765v8.931c.815-1.433 2.697-2.554 4.954-2.554 4.138 0 6.958 3.172 6.958 7.906l-.004.009Zm-4.89 0c0-2.302-1.474-3.922-3.57-3.922-2.097 0-3.635 1.588-3.635 3.923s1.506 3.955 3.635 3.955c2.128 0 3.57-1.62 3.57-3.955ZM134.281 35.595c0-1.62 1.222-2.925 2.948-2.925s2.976 1.309 2.976 2.925c0 1.616-1.254 2.893-2.976 2.893-1.721 0-2.948-1.309-2.948-2.893Zm.563 19.205V39.798h4.766V54.8h-4.766ZM142.585 54.8V39.798h4.798v2.179c.879-1.68 2.6-2.582 4.889-2.582 3.667 0 5.517 2.055 5.517 6.13V54.8h-4.825V47.08c0-2.522-.719-3.671-2.665-3.671-1.945 0-2.916 1.245-2.916 3.548V54.8h-4.798ZM175.872 48.606h-11.157c.096 1.959 1.41 3.017 3.544 3.017 1.474 0 2.412-.403 2.82-1.337h4.701c-.471 2.957-3.511 4.916-7.521 4.916-5.142 0-8.305-2.893-8.305-7.906s3.228-7.906 8.149-7.906c4.921 0 7.897 2.893 7.897 7.128 0 .778-.032 1.245-.124 2.088h-.004Zm-4.606-2.958c-.032-1.991-1.158-3.049-3.195-3.049s-3.324 1.214-3.356 3.05h6.551Z"/></svg>