<svg xmlns="http://www.w3.org/2000/svg" width="363.99" height="364" preserveAspectRatio="none" viewBox="0 0 0.506 0.506"><path stroke="#FFFFFF" stroke-width="0.0022" fill="#FFFFFF" d="M.244.003h.001l.002.001V.024L.245.025H.244v.001h.01L.25.025v-.01h.002l.009.011h.006L.265.025.262.022.257.015A.008.008 0 0 0 .262.013.005.005 0 0 0 .263.009L.262.006A.006.006 0 0 0 .259.004L.253.003H.244zm-.006 0-.02.002h.004V.01l.002.015v.002L.221.028H.22.24L.24.02a.013.013 0 0 1-.002.004L.237.025H.228V.023L.227.016h.008L.237.02h.001V.01H.235L.235.014.232.014H.227L.226.006H.237v.003h.001V.003zm.03 0L.27.005l.001.001v.002l.007.021L.29.01.292.007h.002L.287.004v.001h.002v.002L.288.01.28.023.276.01V.006L.278.004.268.002zM.254.004c.001 0 .003 0 .004.002l.001.003c0 .002 0 .003-.002.004L.252.014H.25v-.01h.003zM.212.005.21.007H.203A.008.008 0 0 0 .2.009a.006.006 0 0 0-.002.005L.2.016l.002.002.005.002.004.002h.002l.001.002v.003A.005.005 0 0 1 .21.03H.206L.203.027A.01.01 0 0 1 .201.024l.001.008h.001V.03h.003a.01.01 0 0 0 .003 0H.21A.008.008 0 0 0 .216.026a.006.006 0 0 0 0-.004V.02L.213.018A.036.036 0 0 0 .208.016.02.02 0 0 1 .202.014L.201.012V.01L.206.008h.003L.21.01l.002.003L.212.005zm.086.002L.3.01v.003L.297.026V.03H.292l.01.003L.3.03V.026L.304.012V.01h.004L.298.006zM.181.012.173.015h.003l.002.003.004.012L.162.02.156.02H.16l.003.001.005.015V.04L.167.04v.001L.173.04H.17L.17.037.164.023l.022.013L.18.017V.015L.18.013zm.14 0H.319a.013.013 0 0 0-.01.009L.31.03a.01.01 0 0 0 .008.007h.006A.013.013 0 0 0 .329.033H.328a.014.014 0 0 1-.005.002H.32C.317.035.316.034.314.032L.312.028.313.023C.313.02.315.018.316.017A.009.009 0 0 1 .32.014a.009.009 0 0 1 .01.003.01.01 0 0 1 0 .006h.001L.333.015.33.016H.33A.012.012 0 0 0 .322.012zM.34.018.341.02v.003L.333.037.333.039H.329l.017.007.005-.005a.017.017 0 0 1-.004.002H.342L.338.04H.337V.038L.34.031l.005.002.002.001v.004L.352.03.349.032H.346L.34.03.344.02l.007.003a.01.01 0 0 1 .002.001V.03h.001L.356.025.339.018zM.14.027l.001.02a.01.01 0 0 1 0 .005L.14.053.149.05H.144L.143.048V.044L.151.04l.003.002.002.002c0 .001 0 .002-.002.002l.01-.003L.163.042H.16L.158.04.141.027zM.366.03H.364A.006.006 0 0 0 .36.033v.005l.003.005a.064.064 0 0 1 .002.003V.05L.363.052H.359A.007.007 0 0 1 .356.048a.006.006 0 0 1 0-.003.01.01 0 0 1 0-.004L.35.049h.004l.002.003h.002a.008.008 0 0 0 .006.001A.006.006 0 0 0 .369.05V.045L.366.04A.02.02 0 0 1 .363.035V.033L.366.031h.003l.002.003.002.003L.372.04.376.034H.373A.01.01 0 0 0 .37.03L.366.03zM.143.032.15.04.143.042v-.01zM.126.035.12.039l.004.02L.106.047.1.052h.003l.002.001.01.013v.002L.114.07.12.067H.116L.115.066.106.052l.02.011L.122.042l.01.012V.06H.13L.14.055H.135L.134.053.125.04V.036h.001V.034zM.38.048C.378.048.377.049.377.05S.378.055.38.055h.002V.053h.001V.052L.385.051C.384.048.382.047.38.047zM.4.049V.05l.002.002L.4.054.394.061a.02.02 0 0 0-.003.005v.005a.01.01 0 0 0 .004.004A.01.01 0 0 0 .4.078L.405.077A.018.018 0 0 0 .409.073L.415.066.417.064h.002L.42.065.415.058V.06l.001.002-.001.003-.006.007a.014.014 0 0 1-.004.004H.4c-.002 0-.003 0-.004-.002A.006.006 0 0 1 .394.072V.067L.396.064.403.056.405.055h.003L.4.05zM.096.054.09.06h.001L.093.059.096.06l.006.007a.017.017 0 0 1 .003.004v.003A.008.008 0 0 1 .103.08L.1.08H.095L.092.076.085.069.084.067V.065h.001L.077.07h.001L.08.07l.003.002.006.006a.017.017 0 0 0 .004.004l.005.001A.012.012 0 0 0 .104.08.01.01 0 0 0 .107.075V.071A.018.018 0 0 0 .103.067L.097.06.095.058.096.055zM.425.07C.423.07.422.07.42.072L.42.074v.008l.002.004v.002L.42.09.417.09c-.001 0-.002 0-.003-.002A.008.008 0 0 1 .412.086V.083L.412.08.407.084H.41L.41.087.411.09l.002.002.005.002c.002 0 .004 0 .005-.002L.425.09V.086A.03.03 0 0 0 .424.081.018.018 0 0 1 .422.075L.423.073H.43A.006.006 0 0 1 .431.08a.01.01 0 0 1-.002.004L.435.077H.433V.076A.01.01 0 0 0 .43.072.008.008 0 0 0 .425.07zm-.35.004L.066.08h.001L.07.08.074.08l.005.005-.007.008L.065.089.064.088V.085L.057.091h.001L.06.09H.06l.002.002.012.01.002.002v.002H.075L.083.1H.081L.08.1H.076L.072.093.079.086l.006.005.002.002-.001.002v.001L.093.09H.09c0 .001 0 .001 0 0H.086L.075.079.073.077V.076L.074.075V.074zM.447.09.427.097a.01.01 0 0 1-.004 0H.42l.004.006h.001L.425.1.427.097h.004l.007.006-.002.003A.009.009 0 0 1 .434.11L.43.109l.006.007V.113L.438.11l.01-.018zM.443.094l-.005.01L.433.096l.01-.003zM.47.098zm0 0L.467.1V.1L.466.101.465.104.464.104.464.105v.001L.462.107.462.108.46.11.46.11.459.112H.458L.457.115.456.115.455.116.454.118.452.119.451.12.45.122H.448L.447.125.445.125.444.127C.432.137.296.22.289.225.282.231.27.245.26.286.252.32.247.307.22.306.204.306.161.294.164.328c0 0 .006-.008.065 0C.252.331.27.324.277.306.282.288.29.258.302.242.308.235.417.168.447.15.458.143.493.122.47.098zm-.414.01L.05.116h.003c.002 0 .003.003.004.006H.049V.116A.004.004 0 0 0 .047.113H.043A.005.005 0 0 0 .04.113a.006.006 0 0 0 0 .004c0 .002 0 .004.002.005h.002l.003.001.001.007c0 .002.002.003.003.003l.004.001A.007.007 0 0 0 .06.132.01.01 0 0 0 .06.129V.124L.064.123A.007.007 0 0 0 .067.12a.005.005 0 0 0 0-.003L.065.113v.005L.063.12H.059A.03.03 0 0 0 .057.116.013.013 0 0 1 .055.11V.11zM.044.115h.001l.002.003V.12H.043L.041.117V.115A.003.003 0 0 1 .044.114zm.015.01V.13a.004.004 0 0 1-.004.002H.052A.005.005 0 0 1 .049.128V.124H.058zm.435.01zm0 0L.492.136.49.139V.14L.49.141.488.144H.487v.002H.486v.001H.484v.002H.484V.15H.481v.002H.48L.48.152.479.153H.478L.477.156H.475a6.417 6.417 0 0 1-.14.088A.075.075 0 0 0 .31.27.166.166 0 0 0 .3.324C.3.329.284.339.286.343S.3.345.3.348.295.355.295.358.302.357.3.36C.297.367.302.368.303.372c.002.004 0 .009.001.013C.307.39.317.392.332.39c.016 0 .023.01.02.02C.346.424.336.424.32.435.304.445.304.459.313.47.32.48.347.484.364.467.367.463.356.468.34.46.34.46.33.452.335.442.341.432.35.427.36.422.37.415.383.411.382.4.382.387.368.386.363.385h-.02C.33.385.327.38.326.358.327.352.317.355.323.346.326.342.318.344.313.341.307.34.317.33.324.321.327.316.323.313.325.3A.052.052 0 0 1 .347.26L.4.228l.093-.06c.02-.016.002-.033 0-.035zM.027.137l-.004.01V.147L.026.146h.003l.007.003-.004.01L.024.155.022.155V.152L.016.16h.001L.02.159h.004l.014.006.003.001v.003L.044.16.041.163H.038L.032.159l.004-.01.007.003.002.001v.003L.05.147H.048L.048.15H.044L.03.143.027.142V.139zM.016.165.01.183l.006.002V.184L.014.183.013.18V.178L.014.176.032.18h.003v.004l.003-.01v.001L.035.178H.033L.015.173.016.169.017.167h.004V.165L.017.165zm.012.022C.027.19.03.19.03.19l.001.002v.006L.03.2H.026L.012.199.009.197V.193H.008l-.002.01L.009.2H.01l.015.003H.03v.003L.03.209.034.19.028.187zm.448.015L.474.204.473.205.471.206.47.208H.47L.469.208.468.21H.467L.466.212H.465L.464.214H.462v.001L.458.216.456.218.454.22.45.222H.45L.448.225.445.225C.433.234.373.265.359.277c-.013.01-.013.02-.013.02L.344.324S.336.333.334.336.34.34.346.342C.35.345.345.347.346.35.35.354.353.35.351.358l.003.007C.353.368.35.37.354.373S.368.38.393.376C.42.371.437.391.45.395.455.396.47.4.494.382c.01-.008-.006 0-.03-.01C.438.36.43.36.414.363.399.366.388.37.383.367.378.365.382.358.378.357.371.354.376.35.371.348.367.346.37.345.37.34.37.337.366.338.36.335.356.332.366.328.367.325.37.32.367.315.368.305.37.29.393.28.405.273.42.265.457.242.466.236.487.222.476.202.476.202zM.03.21.028.211.025.213.003.219l.02.01.003.003v.002h.001L.028.226.026.23H.023L.02.225V.217h.004A.01.01 0 0 1 .027.215l.001.002L.03.21H.029zm-.01.009v.008L.008.22l.01-.003zm.002.017.004.003V.24l.001.002v.006H.014V.241h.002L.019.24V.239H.01C.012.24.013.24.013.242v.007H.005V.24L.005.238h.003V.237H.003v.018L.005.251h.022v.002h.002V.238L.02.235zm.007.022H.027V.26L.023.26.008.262a.01.01 0 0 1-.003 0L.004.26v.009h.001V.265h.003L.015.263l.002.011H.01a.01.01 0 0 1-.003.001L.005.273H.005l.001.009V.28H.01L.026.276h.003V.28h.002L.029.27v.003H.028L.025.275.018.275.017.265.024.263h.003l.001.002v-.01zm-.013.04L.009.297l.005.017V.311h.001L.017.31.033.307h.003l.001.001L.036.3v.003L.031.304.024.305V.3L.026.296.018.299H.02v.003l.002.004-.01.002V.303A.01.01 0 0 1 .011.3V.3L.016.297zm.017.017L.027.315A.013.013 0 0 0 .02.321v.001H.018V.33a.011.011 0 0 0 .006.007.013.013 0 0 0 .01 0A.013.013 0 0 0 .043.33a.01.01 0 0 0 0-.008.011.011 0 0 0-.006-.007.013.013 0 0 0-.005 0zm.003.003h.003l.004.005v.005a.014.014 0 0 1-.008.006.015.015 0 0 1-.01 0H.022L.021.331V.33H.02V.323C.022.322.025.32.029.319A.019.019 0 0 1 .035.317zm.114.014c-.015 0-.025.007-.023.02V.35h.002V.348h.003L.132.347h.016L.15.35h.002L.155.35h.002v.001h.002v.001c.024.01.086.037.102.05.01.007.038.02.03.033-.008.014-.045.02-.038.05C.26.513.302.5.307.493.312.486.289.498.28.477.273.46.285.449.301.438.31.433.32.428.318.415.317.405.3.398.283.39A2.387 2.387 0 0 0 .177.337.068.068 0 0 0 .149.331zM.054.347V.35L.053.35.036.36.034.357V.353L.036.35.03.354.04.37.045.368H.04L.04.364.037.363.054.354h.004v.002H.06L.054.345zm.011.016L.048.375H.043V.373l.004.007V.377L.049.376.06.368.054.39l.004.005V.393L.056.392V.389L.072.38a.006.006 0 0 1 .002 0h.002v.001h.001L.072.374v.003L.072.38.058.387.065.364zm.015.02L.074.387H.08L.082.39.085.39v.004L.077.4.075.396.073.394V.393L.075.39.067.394h.003s.002 0 .003.002L.077.4.07.406.065.402.064.4V.398L.065.396.06.398l.012.013V.408L.073.407l.012-.01.002-.001H.09l.002.002L.08.383zm.013.015V.4l.001.002-.001.003-.011.01A.006.006 0 0 1 .08.417H.077V.415L.08.42l.02-.008-.007.02L.1.435V.43L.112.419.113.418h.002V.42h.001L.11.413v.001l.001.002-.002.002L.1.43.104.41V.408L.084.417.095.406.097.404.1.405.094.398zm.029.024v.001l.001.002v.002L.11.442.108.44.107.438V.434L.103.438.12.45.123.445.12.446H.116L.114.443.125.429.127.428H.13L.122.422zM.133.43l.002.003.001.004.001.008a.01.01 0 0 0-.005 0 .005.005 0 0 0-.003.003.005.005 0 0 0-.001.003l.001.003.005.004.008.004V.46L.14.459.141.457.149.444.151.442h.003L.145.437v.001c.002 0 .002.001.002.002v.002L.141.448.14.446.14.433.133.43zm.022.013.002.002v.024L.174.455A.012.012 0 0 1 .177.453h.002L.172.45l.002.002c0 .001 0 .002-.002.002L.17.457.161.453V.447h.003L.155.442zM.137.447a.01.01 0 0 1 .004.001V.45L.138.457H.134A.005.005 0 0 1 .132.452V.45C.133.448.134.447.136.447h.001zm.049.008.002.002V.46L.185.466.183.465H.182C.179.462.177.462.176.464a.006.006 0 0 0-.004.007l.002.003.005.002.009.003L.187.478.185.477V.475L.192.46.192.458h.003L.186.455zm-.025 0 .007.003L.16.465v-.01zm.038.004L.196.464A.014.014 0 0 1 .2.461h.005l.004.001.001.001v.002L.208.473.203.47H.2L.2.469V.467L.196.475.2.473h.008l-.002.01L.199.48H.197L.195.478V.476L.193.481l.018.004L.208.484V.48L.214.466.214.464h.003V.463L.2.459zM.23.465a.013.013 0 0 0-.007.002.011.011 0 0 0-.005.008L.22.481a.01.01 0 0 0 .004.005.025.025 0 0 0 .009.002l.01.001H.24L.239.488V.485L.24.47V.467h.003L.235.464H.23zm-.05 0h.002l.001.001h.001l-.002.01H.179L.177.473.176.472V.469C.176.467.178.467.18.466H.18zm.053.001h.003l.001.001-.002.02H.23A.01.01 0 0 1 .224.483C.223.481.222.48.223.475A.01.01 0 0 1 .226.468.01.01 0 0 1 .233.466z"/></svg>