<svg xmlns="http://www.w3.org/2000/svg" width="374" height="329"><g style="display:inline"><path fill="#fefefe" d="m111.009 95.3 26.1-47.7-26-47.6h6.5c3.6 0 7.9 2.6 9.6 5.7l22.8 41.9-22.9 41.9c-1.7 3.2-6.1 5.7-9.6 5.7h-6.5z" style="display:inline" transform="matrix(2.24573 0 0 2.21445 36.665 .138)"/><path d="M8.7 0C3.9 0 0 3.9 0 8.8v77.7c0 4.8 3.9 8.8 8.7 8.8h95.8l26.1-47.7L104.5 0Zm5.9 26.4h7.8l19.2 31.4h.1V26.4h7V69h-7.8L21.8 37.7h-.2V69h-7zm41.4 0h7.4V69H56Zm14.7 0h7.4v16.9h19.2V26.4h7.3V69h-7.4V49.8H78.1V69h-7.4z" style="fill:#fefefe" transform="matrix(2.24573 0 0 2.21445 36.665 .138)"/><path d="M108.174-102.935v-14.862H93.3v14.862h-5.818v-33.432H93.3v13.311h14.874v-13.311h5.817v33.432z" style="font-weight:700;font-family:&quot;Liberation Sans&quot;;-inkscape-font-specification:&quot;Liberation Sans Bold&quot;;letter-spacing:-1px;word-spacing:0;display:inline;fill:#fefefe;fill-opacity:1;stroke-width:.949322" transform="translate(66.937 431.569)"/><path d="M-24.342-177.953c-5.387 0-10.665 1.831-10.988 8.08h5.277c.215-2.693 2.263-3.878 5.28-3.878 2.154 0 4.955.43 4.955 3.232 0 3.124-3.34 2.8-7.218 3.447-4.417.538-9.264 1.508-9.264 7.54 0 4.633 3.985 7.004 8.294 7.004 2.91 0 6.25-.861 8.404-2.908.431 2.154 1.938 2.908 4.093 2.908.862 0 2.587-.323 3.341-.646v-3.664c-.538.108-.97.108-1.294.108-.97 0-1.292-.538-1.292-1.831h.108v-12.39c0-5.063-4.956-7.002-9.696-7.002zm4.309 12.604h.107v3.878c0 3.447-3.662 4.633-6.032 4.633-1.94 0-4.956-.754-4.956-3.124 0-2.801 2.047-3.663 4.31-3.986 2.37-.323 4.955-.324 6.57-1.401z" style="fill:#fefefe;fill-opacity:1;stroke-width:1.07734" transform="translate(66.937 431.569)"/><path d="M-11.528-177.414h3.986v-7.218h5.28v7.218h4.847v3.986h-4.848v12.928c0 2.154.216 3.34 2.586 3.34.754 0 1.508 0 2.262-.216v4.094c-1.185.108-2.262.323-3.447.323-5.602 0-6.572-2.155-6.68-6.14v-14.33h-3.986zM27.292-178.038c-7.757 0-12.175 5.277-12.175 12.71 0 7.435 4.418 12.822 12.175 12.714 7.756 0 12.172-5.28 12.172-12.713 0-7.434-4.416-12.711-12.172-12.711zm0 4.2c4.74 0 6.893 4.31 6.893 8.51 0 4.203-2.153 8.62-6.893 8.512-4.848 0-6.896-4.31-6.896-8.511 0-4.202 2.155-8.511 6.896-8.511zM43.52-177.414h5.063v3.555l.107.108c1.616-2.694 4.31-4.31 7.542-4.31 5.279 0 8.51 2.801 8.51 8.188v16.59h-5.278v-15.082c-.108-3.77-1.616-5.386-4.74-5.386-3.556 0-5.818 2.8-5.818 6.356v14.22h-5.28v-24.24zM80.003-177.953c-5.387 0-10.665 1.831-10.988 8.08h5.277c.216-2.693 2.263-3.878 5.28-3.878 2.154 0 4.955.43 4.955 3.232 0 3.124-3.34 2.8-7.218 3.447-4.417.538-9.264 1.508-9.264 7.54 0 4.633 3.985 7.004 8.294 7.004 2.91 0 6.25-.861 8.404-2.908.431 2.154 1.938 2.908 4.093 2.908.862 0 2.587-.323 3.341-.646v-3.664c-.538.108-.97.108-1.294.108-.97 0-1.292-.538-1.292-1.831h.108v-12.39c0-5.063-4.956-7.002-9.696-7.002zm4.31 12.604h.106v3.878c0 3.447-3.662 4.633-6.032 4.633-1.94 0-4.955-.754-4.955-3.124 0-2.801 2.046-3.663 4.309-3.986 2.37-.323 4.955-.324 6.571-1.401zM95.027-186.572h5.28v33.398h-5.28zM118.739-186.572h5.817v33.398h-5.817zM130.232-177.414h5.064v3.555l.108.108c1.616-2.694 4.309-4.31 7.54-4.31 5.28 0 8.512 2.801 8.512 8.188v16.59h-5.28v-15.082c-.107-3.77-1.615-5.386-4.74-5.386-3.555 0-5.817 2.8-5.817 6.356v14.22h-5.279v-24.24zM165.875-177.824c-4.417 0-10.127 1.617-10.127 6.896 0 4.848 3.88 6.248 7.758 7.11 3.878.861 7.756 1.184 7.863 3.985.108 2.693-3.34 3.125-5.386 3.125-2.91 0-5.171-1.078-5.494-4.202v.109h-5.28c.108 5.71 4.633 8.402 10.666 8.402 4.956 0 10.774-2.153 10.774-7.863 0-4.74-3.878-6.141-7.756-7.003-3.986-.862-7.866-1.294-7.866-3.88 0-2.155 2.909-2.477 4.417-2.477 2.37 0 4.526.754 4.957 3.232h5.602c-.647-5.386-5.172-7.434-10.128-7.434zM177.442-177.414h3.986v-7.218h5.279v7.218h4.848v3.986h-4.848v12.928c0 2.154.215 3.34 2.585 3.34.754 0 1.508 0 2.263-.216v4.094c-1.186.108-2.263.323-3.448.323-5.602 0-6.572-2.155-6.68-6.14v-14.33h-3.985zM203.42-177.414h3.986v-7.218h5.28v7.218h4.847v3.986h-4.848v12.928c0 2.154.216 3.34 2.586 3.34.754 0 1.508 0 2.262-.216v4.094c-1.185.108-2.262.323-3.447.323-5.602 0-6.572-2.155-6.68-6.14v-14.33h-3.986zM241.889-153.174h-5.28v-3.34h-.107c-1.293 2.478-4.202 3.986-6.895 3.986-6.356 0-9.05-3.232-9.05-9.48v-15.406h5.28v14.76c0 4.2 1.723 5.817 4.632 5.817 4.417 0 5.925-2.801 5.925-6.572v-14.005h5.28v24.24zM244.289-177.414h3.986v-7.218h5.279v7.218h4.848v3.986h-4.848v12.928c0 2.154.215 3.34 2.585 3.34.754 0 1.508 0 2.263-.216v4.094c-1.186.108-2.263.323-3.448.323-5.602 0-6.572-2.155-6.68-6.14v-14.33h-3.985zM272.055-178.038c-7.11 0-11.636 5.816-11.636 12.71 0 7.435 4.31 12.714 11.85 12.714 5.28 0 9.698-2.908 10.883-8.187h-5.064c-.97 2.586-2.801 3.985-5.926 3.985-4.417 0-6.464-3.339-6.464-7.11h17.776c.862-7.218-3.77-14.112-11.419-14.112zm.107 4.309c3.556 0 5.817 3.015 6.033 6.355h-12.39c.108-3.556 2.694-6.355 6.357-6.355zM130.28-127.82c-7.11 0-11.635 5.815-11.635 12.71 0 7.434 4.309 12.714 11.85 12.714 5.28 0 9.698-2.909 10.883-8.188h-5.065c-.97 2.586-2.8 3.986-5.925 3.986-4.417 0-6.464-3.34-6.464-7.11H141.7c.862-7.218-3.77-14.113-11.42-14.113zm.108 4.308c3.555 0 5.817 3.015 6.033 6.355h-12.39c.108-3.555 2.694-6.355 6.357-6.355z" style="fill:#fefefe;fill-opacity:1;stroke-width:1.07733" transform="translate(66.937 431.569)"/><path d="M155.628-127.82c-5.387 0-10.665 1.838-10.988 8.113h5.277c.216-2.704 2.263-3.894 5.28-3.894 2.154 0 4.955.433 4.955 3.246 0 3.137-3.339 2.812-7.217 3.461-4.417.541-9.265 1.515-9.265 7.573 0 4.653 3.985 7.033 8.295 7.033 2.909 0 6.25-.865 8.404-2.92.43 2.163 1.938 2.92 4.092 2.92.862 0 2.588-.324 3.342-.649v-3.679c-.539.108-.971.108-1.294.108-.97 0-1.292-.54-1.292-1.838h.107v-12.442c0-5.085-4.956-7.033-9.696-7.033zm4.31 12.657h.107v3.894c0 3.462-3.663 4.653-6.033 4.653-1.94 0-4.955-.758-4.955-3.138 0-2.813 2.047-3.677 4.31-4.002 2.37-.325 4.954-.325 6.57-1.407z" style="fill:#fefefe;fill-opacity:1;stroke-width:1.07962" transform="translate(66.937 431.569)"/><path d="M196.527-136.367v33.432h5.075v-14.237c0-3.559 2.175-6.361 5.592-6.361 3.004 0 4.454 1.618 4.557 5.392v15.099h5.075v-16.609c0-5.392-3.107-8.196-8.181-8.196-3.004 0-5.697 1.725-6.94 3.882h-.103v-12.402z" style="fill:#fefefe;fill-opacity:1;stroke-width:1.05683" transform="translate(66.937 431.569)"/><path d="M296.252-177.824c-4.417 0-10.127 1.617-10.127 6.896 0 4.848 3.88 6.248 7.758 7.11 3.878.861 7.756 1.184 7.863 3.985.108 2.693-3.34 3.125-5.386 3.125-2.91 0-5.171-1.078-5.494-4.202v.109h-5.28c.108 5.71 4.633 8.402 10.666 8.402 4.956 0 10.774-2.154 10.774-7.863 0-4.74-3.878-6.141-7.756-7.003-3.986-.862-7.866-1.294-7.866-3.88 0-2.155 2.909-2.477 4.417-2.477 2.37 0 4.526.754 4.957 3.232h5.602c-.647-5.386-5.172-7.434-10.128-7.434z" style="fill:#fefefe;fill-opacity:1;stroke-width:1.07733" transform="translate(66.937 431.569)"/><path d="M5.753-181.76v-4.812h5.278v4.813zm0 28.586v-24.24h5.278v24.24zM195.083-181.76v-4.812h5.279v4.813zm0 28.586v-24.24h5.279v24.24z" style="font-weight:700;font-family:&quot;Liberation Sans&quot;;-inkscape-font-specification:&quot;Liberation Sans Bold&quot;;letter-spacing:-1px;word-spacing:-3px;fill:#fefefe;fill-opacity:1;stroke-width:.917127" transform="translate(66.937 431.569)"/><path d="M178.777-127.174h3.986v-7.219h5.279v7.219h4.848v3.986h-4.848v12.928c0 2.154.215 3.34 2.586 3.34.754 0 1.508 0 2.262-.216v4.094c-1.185.107-2.262.323-3.448.323-5.602 0-6.571-2.155-6.679-6.14v-14.33h-3.986zM170.387-136.367h5.279v33.397h-5.28zM57.975-123.188h3.986v20.253h5.28v-20.253h4.847v-3.986H67.24v-1.975c0-2.155.216-3.34 2.586-3.34.754 0 1.508 0 2.262.216v-4.094c-1.185-.108-2.262-.324-3.447-.324-5.602 0-6.572 2.155-6.68 6.141v3.376h-3.986zM44.3-127.82c-7.756 0-12.174 5.277-12.174 12.71 0 7.434 4.418 12.821 12.174 12.714 7.757 0 12.173-5.28 12.173-12.714 0-7.433-4.416-12.71-12.173-12.71zm0 4.2c4.74 0 6.894 4.309 6.894 8.51 0 4.202-2.153 8.62-6.894 8.512-4.848 0-6.895-4.31-6.895-8.512 0-4.201 2.155-8.51 6.895-8.51z" style="fill:#fefefe;fill-opacity:1;stroke-width:1.07733" transform="translate(66.937 431.569)"/><path d="m-45.712-153.174-15.396-24.24v24.24h-5.818v-33.398h5.818l15.396 24.24v-24.24h5.818v33.398z" style="font-weight:700;font-family:&quot;Liberation Sans&quot;;-inkscape-font-specification:&quot;Liberation Sans Bold&quot;;letter-spacing:-1px;word-spacing:-3px;display:inline;fill:#fefefe;fill-opacity:1;stroke-width:1.0068" transform="translate(66.937 431.569)"/></g></svg>