<svg style="object-fit:cover" id="my-svg" version="1" baseProfile="full" width="100%" height="100%" viewBox="0 0 1422 1323" xmlns="http://www.w3.org/2000/svg"><rect width="1422" height="1323" fill="#fcf7ff"></rect><defs><linearGradient id="linear-gradient" x1="0" x2="1" y1="0" y2="1"><stop offset="0%" stop-color="#111d4a80"></stop><stop offset="100%" stop-color="#111df480"></stop></linearGradient></defs><path transform="scale(1, 1)" d="M 0,1323 V 0,793 C 13.549158356286267,807.2067367992894 27.098316712572533,821.4134735985788 43,737 C 58.90168328742747,652.5865264014212 77.15589150599612,469.5528424049744 89,542 C 100.84410849400388,614.4471575950256 106.278117263443,942.3751567815232 118,1002 C 129.721882736557,1061.6248432184768 147.73163944023193,852.9465304689326 165,745 C 182.26836055976807,637.0534695310674 198.79532497562928,629.8387213427468 214,728 C 229.20467502437072,826.1612786572532 243.0870606572509,1029.6985841600804 256,1036 C 268.9129393427491,1042.3014158399196 280.8564323953669,851.3669420169317 293,823 C 305.1435676046331,794.6330579830683 317.48720976128146,928.8336477721934 333,973 C 348.51279023871854,1017.1663522278066 367.19472855950727,971.298466894295 381,975 C 394.80527144049273,978.701533105705 403.7338760006893,1031.9724846506265 417,1045 C 430.2661239993107,1058.0275153493735 447.86976743773545,1030.8115945031998 462,1036 C 476.13023256226455,1041.1884054968002 486.78705424836926,1078.7811373365746 501,1007 C 515.2129457516307,935.2188626634254 532.9820155687878,754.063856150501 548,784 C 563.0179844312122,813.936143849499 575.2848834764798,1054.9634380614216 590,1038 C 604.7151165235202,1021.0365619385784 621.8784505252929,746.0823916038125 634,712 C 646.1215494747071,677.9176083961875 653.2013144223482,884.7069955233284 665,850 C 676.7986855776518,815.2930044766716 693.316291785314,539.089626302874 711,557 C 728.683708214686,574.910373697126 747.5335184363958,886.9344992651754 760,959 C 772.4664815636042,1031.0655007348246 778.5496344691027,863.1723766364241 792,785 C 805.4503655308973,706.8276233635759 826.2679436871937,718.3759941891279 843,794 C 859.7320563128063,869.6240058108721 872.3785907821231,1009.3236466070641 883,1081 C 893.6214092178769,1152.6763533929359 902.2176931843138,1156.3294193826148 915,1012 C 927.7823068156862,867.6705806173852 944.7506364806212,575.3586758624765 960,631 C 975.2493635193788,686.6413241375235 988.7797608932011,1090.235877167479 1003,1068 C 1017.2202391067989,1045.764122832521 1032.1303199465747,597.6978154676073 1046,571 C 1059.8696800534253,544.3021845323927 1072.6989593204999,938.972860962092 1086,1024 C 1099.3010406795001,1109.027139037908 1113.073842771426,884.4107406840246 1127,835 C 1140.926157228574,785.5892593159754 1155.0056695937967,911.3841763018094 1170,872 C 1184.9943304062033,832.6158236981906 1200.9034788533875,628.0525541087377 1214,536 C 1227.0965211466125,443.9474458912623 1237.3804149926525,464.40560726323986 1252,596 C 1266.6195850073475,727.5943927367601 1285.5748611760018,970.3250168383031 1301,1056 C 1316.4251388239982,1141.674983161697 1328.3201403033397,1070.2943253835474 1339,995 C 1349.6798596966603,919.7056746164525 1359.1445776106393,840.4976816275064 1373,846 C 1386.8554223893607,851.5023183724936 1405.101549254103,941.7149481064267 1414,947 C 1422.898450745897,952.2850518935733 1422.4492253729486,872.6425259467867 1422,793 C 1422,793 1422,1323 1422,1323 Z" stroke="none" strokeWidth="0" fill="url(#linear-gradient)" class="transition-all duration-300 ease-in-out delay-150" style="transform-origin: center center;"></path><defs><linearGradient id="linear-gradient" x1="0" x2="1" y1="0" y2="1"><stop offset="0%" stop-color="#111d4a90"></stop><stop offset="100%" stop-color="#111df490"></stop></linearGradient></defs><path transform="scale(1, 1)" d="M 0,1323 V 0,1190 C 10.69352745918895,1103.1147900439892 21.3870549183779,1016.2295800879783 34,1005 C 46.6129450816221,993.7704199120217 61.14530778567733,1058.196469692076 79,1183 C 96.85469221432267,1307.803530307924 118.03171393891279,1492.9845411437173 132,1477 C 145.9682860610872,1461.0154588562827 152.72783645867167,1243.8653657330547 165,1200 C 177.27216354132833,1156.1346342669453 195.05694022640057,1285.5539959240646 211,1256 C 226.94305977359943,1226.4460040759354 241.04440263572604,1037.9186505706875 252,932 C 262.95559736427396,826.0813494293126 270.76544923069514,802.7714017931855 285,964 C 299.23455076930486,1125.2285982068145 319.89380044149345,1470.99574225657 337,1433 C 354.10619955850655,1395.00425774343 367.65934900333133,973.2456291805335 381,944 C 394.34065099666867,914.7543708194665 407.4688035451813,1278.021741021296 419,1300 C 430.5311964548187,1321.978258978704 440.4654368159435,1002.6674067342816 456,922 C 471.5345631840565,841.3325932657184 492.66944919104435,999.3086320415769 507,1078 C 521.3305508089556,1156.6913679584231 528.856766419879,1156.0980650994106 541,1163 C 553.143233580121,1169.9019349005894 569.9034851294393,1184.2991075607806 585,1125 C 600.0965148705607,1065.7008924392194 613.5292930623638,932.7055046574675 627,906 C 640.4707069376362,879.2944953425325 653.9793426211058,958.8788738093496 666,990 C 678.0206573788942,1021.1211261906504 688.5533364532125,1003.7790001051337 705,1054 C 721.4466635467875,1104.2209998948663 743.8073115660436,1222.0051257701155 757,1228 C 770.1926884339564,1233.9948742298845 774.2174172826129,1128.200496814405 788,1167 C 801.7825827173871,1205.799503185595 825.3230193035046,1389.1928869722647 841,1412 C 856.6769806964954,1434.8071130277353 864.4905055033691,1297.027955296536 875,1159 C 885.5094944966309,1020.972044703464 898.7149586830188,882.6952918415914 916,951 C 933.2850413169812,1019.3047081584086 954.6496597645558,1294.1908773370978 968,1316 C 981.3503402354442,1337.8091226629022 986.6864022587581,1106.5411988100163 998,993 C 1009.3135977412419,879.4588011899835 1026.6047312004114,883.6443274228361 1044,974 C 1061.3952687995886,1064.355672577164 1078.8946729395961,1240.8814914986392 1091,1323 C 1103.1053270604039,1405.1185085013608 1109.8165770412045,1392.8297065826061 1125,1335 C 1140.1834229587955,1277.1702934173939 1163.8390188955862,1173.7996821709357 1178,1138 C 1192.1609811044138,1102.2003178290643 1196.8273473764505,1133.9715647336502 1208,1100 C 1219.1726526235495,1066.0284352663498 1236.851591598612,966.3140588944623 1252,937 C 1267.148408401388,907.6859411055377 1279.7662862291013,948.7721996885006 1294,963 C 1308.2337137708987,977.2278003114994 1324.0832634849833,964.5971423515358 1338,978 C 1351.9167365150167,991.4028576484642 1363.9006598309659,1030.8392309053559 1379,1039 C 1394.0993401690341,1047.1607690946441 1412.3140971911523,1024.045934027041 1420,1044 C 1427.6859028088477,1063.954065972959 1424.8429514044237,1126.9770329864796 1422,1190 C 1422,1190 1422,1323 1422,1323 Z" stroke="none" strokeWidth="0" fill="url(#linear-gradient)" class="transition-all duration-300 ease-in-out delay-150" style="transform-origin: center center;"></path><defs><linearGradient id="linear-gradient" x1="0" x2="1" y1="0" y2="1"><stop offset="0%" stop-color="#111d4aff"></stop><stop offset="100%" stop-color="#111df4ff"></stop></linearGradient></defs><path transform="scale(1, 1)" d="M 0,1323 V 0,1786 C 12.649460501044466,1716.555185817036 25.29892100208893,1647.110371634072 40,1671 C 54.70107899791107,1694.889628365928 71.45377649268876,1812.1136992807478 86,1887 C 100.54622350731124,1961.8863007192522 112.88597302715607,1994.4348312429368 126,2002 C 139.11402697284393,2009.5651687570632 153.002331398687,1992.146975747506 167,1979 C 180.997668601313,1965.853024252494 195.10470137809585,1956.9772657670394 207,1912 C 218.89529862190415,1867.0227342329606 228.57886308892967,1785.9439611843354 244,1697 C 259.42113691107033,1608.0560388156646 280.5798462661854,1511.2468894956194 295,1594 C 309.4201537338146,1676.7531105043806 317.1017518463286,1939.068480833187 329,2003 C 340.8982481536714,2066.931519166813 357.0131463485002,1932.4791871716313 373,1943 C 388.9868536514998,1953.5208128283687 404.8456627596706,2109.0147704802876 419,2002 C 433.1543372403294,1894.9852295197122 445.60420261281746,1525.4617309072164 459,1522 C 472.39579738718254,1518.5382690927836 486.73752678905976,1881.1383058908468 501,1971 C 515.2624732109402,2060.861694109153 529.4456902309436,1877.9850455293965 546,1837 C 562.5543097690564,1796.0149544706035 581.4797122871657,1896.921511991566 593,1931 C 604.5202877128343,1965.078488008434 608.6354606203932,1932.3289065043389 621,1881 C 633.3645393796068,1829.6710934956611 653.9784452312613,1759.7628619910784 670,1708 C 686.0215547687387,1656.2371380089216 697.4507584545618,1622.619645531348 710,1650 C 722.5492415454382,1677.380354468652 736.2185209504919,1765.7585558835297 750,1735 C 763.7814790495081,1704.2414441164703 777.6751577434705,1554.3461309345328 793,1581 C 808.3248422565295,1607.6538690654672 825.0808480756259,1810.8569203783384 840,1819 C 854.9191519243741,1827.1430796216616 868.0014499540255,1640.2261875521144 880,1535 C 891.9985500459745,1429.7738124478856 902.913352108272,1406.2383294132044 916,1559 C 929.086647891728,1711.7616705867956 944.3451416128867,2040.8204947950685 961,2050 C 977.6548583871133,2059.1795052049315 995.7060814401816,1748.4796914065219 1011,1655 C 1026.2939185598184,1561.5203085934781 1038.8305326263874,1685.2607395788446 1050,1740 C 1061.1694673736126,1794.7392604211554 1070.9717880542696,1780.4773502780986 1086,1727 C 1101.0282119457304,1673.5226497219014 1121.2823151565347,1580.8298593087607 1136,1674 C 1150.7176848434653,1767.1701406912393 1159.8989513195916,2046.2032124868595 1170,2043 C 1180.1010486804084,2039.7967875131405 1191.1218795650993,1754.3572907438022 1207,1704 C 1222.8781204349007,1653.6427092561978 1243.6135304200104,1838.3676245379297 1260,1945 C 1276.3864695799896,2051.6323754620703 1288.423998754859,2080.1722111044774 1299,2065 C 1309.576001245141,2049.8277888955226 1318.690474560553,1990.9435310441609 1331,1947 C 1343.309525439447,1903.0564689558391 1358.8141030029278,1874.0536647188796 1377,1821 C 1395.1858969970722,1767.9463352811204 1416.0531134277348,1690.84181008032 1424,1681 C 1431.9468865722652,1671.15818991968 1426.9734432861326,1728.57909495984 1422,1786 C 1422,1786 1422,1323 1422,1323 Z" stroke="none" strokeWidth="0" fill="url(#linear-gradient)" class="transition-all duration-300 ease-in-out delay-150" style="transform-origin: center center;"></path></svg>