<?xml version="1.0" standalone="no"?>
<svg xmlns="http://www.w3.org/2000/svg" viewBox="0 0 1440 320">
  <path fill="#111d4a" fill-opacity="1" d="M0,288L26.7,277.3C53.3,267,107,245,160,250.7C213.3,256,267,288,320,272C373.3,256,427,192,480,186.7C533.3,181,587,235,640,256C693.3,277,747,267,800,245.3C853.3,224,907,192,960,197.3C1013.3,203,1067,245,1120,229.3C1173.3,213,1227,139,1280,138.7C1333.3,139,1387,213,1413,250.7L1440,288L1440,320L1413.3,320C1386.7,320,1333,320,1280,320C1226.7,320,1173,320,1120,320C1066.7,320,1013,320,960,320C906.7,320,853,320,800,320C746.7,320,693,320,640,320C586.7,320,533,320,480,320C426.7,320,373,320,320,320C266.7,320,213,320,160,320C106.7,320,53,320,27,320L0,320Z"></path>
</svg>